<?xml version="1.0" standalone="no"?><!DOCTYPE svg PUBLIC "-//W3C//DTD SVG 1.1//EN" "http://www.w3.org/Graphics/SVG/1.1/DTD/svg11.dtd"><svg class="icon" height="512" viewBox="0 0 1024 1024" version="1.1" xmlns="http://www.w3.org/2000/svg"><path d="M736.83968 795.93472v-179.30752l-620.78976 4.78208v175.23712h0.27136c0 73.55392 138.92608 133.20704 310.272 133.20704 171.35616 0 310.28224-59.648 310.28224-133.20704-0.00512-0.23552-0.03584-0.47616-0.03584-0.71168" fill="#2299E1" /><path d="M736.8704 616.63232c0 73.54368-138.92608 133.19168-310.28224 133.19168-171.36128 0-310.272-59.64288-310.272-133.19168 0-73.59488 138.91072-133.22752 310.272-133.22752 171.35616 0 310.28224 59.63264 310.28224 133.22752" fill="#FFFDFA" /><path d="M426.58816 511.77472c161.46944 0 282.10176 55.32672 282.10176 104.8576 0 49.46432-120.63232 104.81664-282.10176 104.81664-161.4592 0-282.10176-55.35232-282.10176-104.81664 0-49.51552 120.64256-104.8576 282.10176-104.8576m0-28.36992c-171.36128 0-310.272 59.648-310.272 133.22752 0 73.54368 138.91072 133.19168 310.272 133.19168 171.35616 0 310.28224-59.64288 310.28224-133.19168 0-73.58464-138.92608-133.22752-310.28224-133.22752" fill="#FFFDFA" /><path d="M736.83968 586.76224V407.44448l-620.78976 4.7616v175.25248h0.27136c0 73.55392 138.92608 133.1968 310.272 133.1968 171.35616 0 310.28224-59.63776 310.28224-133.1968-0.00512-0.2304-0.03584-0.4608-0.03584-0.69632" fill="#2299E1" /><path d="M736.7936 407.45984c0 73.54368-138.92608 133.1968-310.3232 133.1968-171.3664 0-310.2976-59.648-310.2976-133.1968 0-73.59488 138.9312-133.22752 310.2976-133.22752 171.39712 0.01024 310.3232 59.63264 310.3232 133.22752" fill="#FFFDFA" /><path d="M426.4704 302.60224c161.47456 0 282.10688 55.34208 282.10688 104.84736 0 49.5104-120.63232 104.84224-282.10688 104.84224-161.44384 0-282.06592-55.33184-282.06592-104.84224 0.01024-49.50528 120.62208-104.84736 282.06592-104.84736m0-28.35968c-171.35616 0-310.2976 59.62752-310.2976 133.20704 0 73.5488 138.94144 133.21216 310.2976 133.21216 171.41248 0 310.33344-59.65824 310.33344-133.21216-0.01024-73.58464-138.93632-133.20704-310.33344-133.20704" fill="#FFFDFA" /><path d="M736.83968 377.6V198.28224h-0.04608c0 73.56928-138.92608 133.1968-310.3232 133.1968-167.61856 0-303.85664-57.09312-309.70368-128.42496h-0.7168v175.24736h0.27136c0 73.54368 138.92608 133.21216 310.272 133.21216 171.35616 0 310.28224-59.66336 310.28224-133.21216-0.00512-0.2304-0.03584-0.47104-0.03584-0.70144" fill="#2299E1" /><path d="M425.00608 84.096c-161.47968 0-308.34688 66.32448-280.59648 127.96416 0.56832 1.36704 0.46592 3.0464 0.68096 4.53632 7.04512 48.27648 124.86656 100.29568 281.3952 100.29568 161.20832 0 281.71776-55.19872 282.06592-104.63232 0-0.08192 0-0.14848 0.02048-0.19968 24.73984-65.08544-122.10176-127.96416-283.56608-127.96416" fill="#FFFDFA" /><path d="M426.4704 65.05984c-171.35616 0-310.2976 59.62752-310.2976 133.21728 0 1.60256 0.42496 3.1488 0.5888 4.77696 5.86752 71.33184 142.08 128.42496 309.71392 128.42496 171.39712 0 310.31296-59.63776 310.31296-133.1968 0.00512-73.59488-138.92096-133.2224-310.31808-133.2224m0 238.04416c-156.5184 0-274.34496-52.01408-281.38496-100.26496-0.22016-1.536-0.67584-3.05664-0.67584-4.56192 0-49.50528 120.62208-104.86784 282.06592-104.86784 161.47456 0 282.10688 55.35232 282.10688 104.86784 0 0.0768-0.02048 0.13824-0.02048 0.20992-0.36352 49.4336-120.87808 104.61696-282.09152 104.61696" fill="#FFFDFA" /><path d="M426.4704 50.46784c-171.35616 0-310.2976 59.64288-310.2976 133.21728 0 1.62816 0.42496 3.18976 0.5888 4.78208 5.86752 71.33184 142.08 128.42496 309.71392 128.42496 171.39712 0 310.31296-59.63776 310.31296-133.20704 0.00512-73.56416-138.92096-133.21728-310.31808-133.21728m0 238.04928c-156.5184 0-274.34496-52.02432-281.38496-100.26496-0.22016-1.54624-0.67584-3.0464-0.67584-4.56704 0-49.50016 120.62208-104.83712 282.06592-104.83712 161.47456 0 282.10688 55.33184 282.10688 104.83712 0 0.07168-0.02048 0.14848-0.02048 0.24064-0.36352 49.408-120.87808 104.59136-282.09152 104.59136" fill="#2299E1" /><path d="M658.19648 696.89344m-277.94432 0a277.94432 277.94432 0 1 0 555.88864 0 277.94432 277.94432 0 1 0-555.88864 0Z" fill="#FFFFFF" /><path d="M473.68704 673.26464h-41.07776c-16.9472 0-30.81216 13.87008-30.81216 30.80192 0 16.95232 13.88544 30.82752 30.81216 30.82752h41.07776c16.96256 0 30.81216-13.88032 30.81216-30.82752-0.00512-16.93184-13.85472-30.80192-30.81216-30.80192z m-2.56 51.35872h-35.95776c-11.27936 0-20.52096-9.24672-20.52096-20.56192a20.59264 20.59264 0 0 1 20.52096-20.5312h35.95776a20.59264 20.59264 0 0 1 20.54144 20.5312 20.60288 20.60288 0 0 1-20.54144 20.56192z m112.49152-31.33952c0-11.04896-9.24672-20.29568-20.53632-20.29568H509.13792v61.63968h10.27072v-51.34848h43.6736c5.64224 0 10.26048 4.61824 10.26048 10.2656s-4.61824 10.51648-10.26048 10.51648h-35.95264l35.95264 30.82752h15.40608l-23.90016-20.5568h8.49408c11.29472 0.01024 20.53632-9.48224 20.53632-21.04832z m46.49984-20.29568c-3.34336 0-6.16448 1.79712-7.97696 4.62848l-35.95264 57.78432h12.07296l27.99104-44.69248 3.8656-6.144 3.85024 6.144 13.88544 22.08256h-32.6144l5.12512 10.2912h33.89952l7.71072 12.3136h12.07296l-35.94752-57.78432c-1.58208-2.57024-4.4032-4.62336-7.98208-4.62336z m221.37856 10.5472h34.92352l7.70048-10.27072h-45.18912c-16.95232 0-30.81728 13.87008-30.81728 30.80192 0 16.95232 13.88032 30.82752 30.81728 30.82752h40.06912l5.12-10.27072h-42.624c-9.48736 0-17.46432-6.69184-19.77344-15.67744h52.14208l5.14048-10.2656h-57.28256a20.38784 20.38784 0 0 1 19.77344-15.14496z m-89.37472-10.27072h-10.27072v56.49408a5.1456 5.1456 0 0 0 5.13024 5.13536h57.77408l5.1456-10.28096h-57.7792v-51.34848z m-59.07968 10.27072h34.93376l7.70048-10.27072h-45.19424c-16.95744 0-30.82752 13.87008-30.82752 30.80192 0 16.95232 13.89056 30.82752 30.82752 30.82752h40.064l5.13024-10.27072h-42.63424a20.608 20.608 0 0 1-20.54144-20.56192 20.58752 20.58752 0 0 1 20.54144-20.52608z m204.91776-11.94496c-3.95776 0-7.50592 3.01056-7.50592 7.4496 0 4.4288 3.54304 7.43424 7.50592 7.43424 3.94752 0 7.48544-3.00544 7.48544-7.43424 0-4.43904-3.53792-7.4496-7.48544-7.4496z m0 13.3632c-3.26144 0-5.81632-2.5344-5.81632-5.90848 0-3.36384 2.56512-5.89312 5.81632-5.89312 3.23072 0 5.8112 2.52928 5.8112 5.89312a5.7856 5.7856 0 0 1-5.8112 5.90848z" fill="#DF0024" /></svg>